<?xml version="1.0" encoding="utf-8"?>
<!-- Generator: Adobe Illustrator 18.0.0, SVG Export Plug-In . SVG Version: 6.00 Build 0)  -->
<!DOCTYPE svg PUBLIC "-//W3C//DTD SVG 1.1//EN" "http://www.w3.org/Graphics/SVG/1.1/DTD/svg11.dtd">
<svg version="1.1" id="Layer_1" xmlns="http://www.w3.org/2000/svg" xmlns:xlink="http://www.w3.org/1999/xlink" x="0px" y="0px"
	 viewBox="692 0 1080 882.1" enable-background="new 692 0 1080 882.1" xml:space="preserve">
<path fill="#77B9C8" d="M1651,378.1c-2.5,0-96,0-96,0c1.7-18,2.8-30.7,2.8-41.4c0.3-96-63.8-185.5-157.6-206.1
	c-53.4-11.8-104.5-5.9-146.7,16.9C1202.1,70.9,1116.8,17.8,1019,11.8c-12.6-1.7-25.3-3.4-38.4-3.4C821.2,8.3,692,141.3,692,305.7
	c0,85.7,35.3,162.5,91.5,216.8c49.7,55.1,118.6,90.6,200.3,96.5c0,0,664.7,3.3,667.2,3.3c66.9,0,121-50.1,121-122.1
	S1717.8,378.1,1651,378.1z"/>
<path fill="#92C7D3" d="M1575.1,648.1c-2.2,0-84.8,0-84.8,0c1.5-18,2.5-17.9,2.5-27.5c0.3-84.8-56.4-159.2-139.2-177.5
	c-47.2-10.4-92.3-2.9-129.6,17.2c-45.5-67.7-120.9-113.5-207.2-118.7c-11.1-1.5-22.4-2.5-33.9-2.5c-140.8,0-254.9,117.8-254.9,263
	c0,75.7,31.2,143.7,80.8,191.7c43.9,48.7,104.8,80.1,176.9,85.4c0,0,587.2,2.9,589.4,2.9c59,0,106.9-53.4,106.9-117
	C1682,701.5,1634.1,648.1,1575.1,648.1z"/>
</svg>
