<?xml version="1.0" encoding="utf-8"?>
<!-- Generator: Adobe Illustrator 18.0.0, SVG Export Plug-In . SVG Version: 6.00 Build 0)  -->
<!DOCTYPE svg PUBLIC "-//W3C//DTD SVG 1.1//EN" "http://www.w3.org/Graphics/SVG/1.1/DTD/svg11.dtd">
<svg version="1.1" id="Layer_1" xmlns="http://www.w3.org/2000/svg" xmlns:xlink="http://www.w3.org/1999/xlink" x="0px" y="0px"
	 viewBox="420.7 97.5 1094.3 648.1" enable-background="new 420.7 97.5 1094.3 648.1" xml:space="preserve">
<g id="Calque_2">
	<path fill="#92C7D3" d="M1454.7,633.6H479.6c-11.2,0-20.3-8-20.3-18c0-10,9.1-18,20.3-18h975.1c11.2,0,20.3,8,20.3,18
		C1475,625.6,1466,633.6,1454.7,633.6z"/>
	<path fill="#92C7D3" d="M1494.7,689.6H519.6c-11.2,0-20.3-8-20.3-18c0-10,9.1-18,20.3-18h975.1c11.2,0,20.3,8,20.3,18
		C1515,681.6,1506,689.6,1494.7,689.6z"/>
	<path fill="#92C7D3" d="M1454.7,745.6H479.6c-11.2,0-20.3-8-20.3-18c0-10,9.1-18,20.3-18h975.1c11.2,0,20.3,8,20.3,18
		C1475,737.6,1466,745.6,1454.7,745.6z"/>
</g>
<path fill="#92C7D3" d="M1377.1,444.8c-2.5,0-95.7,0-95.7,0c1.7-18,2.8-19.5,2.8-30.2c0.3-95.8-63.6-179.4-157.1-200
	c-53.3-11.7-104.2-3.1-146.3,19.7c-51.4-76.4-136.4-128-234-134c-12.5-1.7-25.3-2.7-38.3-2.7c-159,0-287.8,133-287.8,296.9
	c0,68.2,22.5,131,60.1,181.1l1017,2.1C1497.8,505.8,1443.8,444.8,1377.1,444.8z"/>
</svg>
