<?xml version="1.0" encoding="utf-8"?>
<!-- Generator: Adobe Illustrator 18.0.0, SVG Export Plug-In . SVG Version: 6.00 Build 0)  -->
<!DOCTYPE svg PUBLIC "-//W3C//DTD SVG 1.1//EN" "http://www.w3.org/Graphics/SVG/1.1/DTD/svg11.dtd">
<svg version="1.1" id="Layer_1" xmlns="http://www.w3.org/2000/svg" xmlns:xlink="http://www.w3.org/1999/xlink" x="0px" y="0px"
	 viewBox="420 0 1080 1080" enable-background="new 420 0 1080 1080" xml:space="preserve">
<path fill="#77B9C8" d="M1379,378.1c-2.5,0-96,0-96,0c1.7-18,2.8-30.7,2.8-41.4c0.3-96-63.8-185.5-157.6-206.1
	c-53.4-11.8-104.5-5.9-146.7,16.9C930.1,70.9,844.8,17.8,747,11.8c-12.6-1.7-25.3-3.4-38.4-3.4C549.2,8.3,420,141.3,420,305.7
	c0,85.7,35.3,162.5,91.5,216.8c49.7,55.1,118.6,90.6,200.3,96.5c0,0,664.7,3.3,667.2,3.3c66.9,0,121-50.1,121-122.1
	S1445.8,378.1,1379,378.1z"/>
<path fill="#92C7D3" d="M1303.1,648.1c-2.2,0-84.8,0-84.8,0c1.5-18,2.5-17.9,2.5-27.5c0.3-84.8-56.4-159.2-139.2-177.5
	c-47.2-10.4-92.3-2.9-129.6,17.2c-45.5-67.7-120.9-113.5-207.2-118.7c-11.1-1.5-22.4-2.5-33.9-2.5c-140.8,0-254.9,117.8-254.9,263
	c0,75.7,31.2,143.7,80.8,191.7c43.9,48.7,104.8,80.1,176.9,85.4c0,0,587.2,2.9,589.4,2.9c59,0,106.9-53.4,106.9-117
	C1410,701.5,1362.1,648.1,1303.1,648.1z"/>
<path id="SVGCleanerId_0" fill="#92C7D3" d="M712.5,1071.6c-3.1,0-6.2-0.8-9-2.4c-8.6-5-11.6-16-6.6-24.6l63-109.1
	c5-8.6,16-11.6,24.6-6.6c8.6,5,11.6,16,6.6,24.6l-63,109.1C724.8,1068.4,718.7,1071.6,712.5,1071.6z"/>
<path id="SVGCleanerId_1" fill="#92C7D3" d="M820.5,1071.6c-3.1,0-6.2-0.8-9-2.4c-8.6-5-11.6-16-6.6-24.6l63-109.1
	c5-8.6,16-11.6,24.6-6.6c8.6,5,11.6,16,6.6,24.6l-63,109.1C832.8,1068.4,826.7,1071.6,820.5,1071.6z"/>
<path id="SVGCleanerId_2" fill="#92C7D3" d="M496.5,1071.6c-3.1,0-6.2-0.8-9-2.4c-8.6-5-11.6-16-6.6-24.6l63-109.1
	c5-8.6,16-11.6,24.6-6.6c8.6,5,11.6,16,6.6,24.6l-63,109.1C508.8,1068.4,502.7,1071.6,496.5,1071.6z"/>
<path id="SVGCleanerId_3" fill="#92C7D3" d="M604.5,1071.6c-3.1,0-6.2-0.8-9-2.4c-8.6-5-11.6-16-6.6-24.6l63-109.1
	c5-8.6,16-11.6,24.6-6.6c8.6,5,11.6,16,6.6,24.6l-63,109.1C616.8,1068.4,610.7,1071.6,604.5,1071.6z"/>
<path id="SVGCleanerId_4" fill="#92C7D3" d="M928.5,1071.6c-3.1,0-6.2-0.8-9-2.4c-8.6-5-11.6-16-6.6-24.6l63-109.1
	c5-8.6,16-11.6,24.6-6.6c8.6,5,11.6,16,6.6,24.6l-63,109.1C940.8,1068.4,934.7,1071.6,928.5,1071.6z"/>
<path id="SVGCleanerId_5" fill="#92C7D3" d="M1036.5,1071.6c-3.1,0-6.2-0.8-9-2.4c-8.6-5-11.6-16-6.6-24.6l63-109.1
	c5-8.6,16-11.6,24.6-6.6c8.6,5,11.6,16,6.6,24.6l-63,109.1C1048.8,1068.4,1042.7,1071.6,1036.5,1071.6z"/>
<path id="SVGCleanerId_6" fill="#92C7D3" d="M1144.5,1071.6c-3.1,0-6.2-0.8-9-2.4c-8.6-5-11.6-16-6.6-24.6l63-109.1
	c5-8.6,16-11.6,24.6-6.6c8.6,5,11.6,16,6.6,24.6l-63,109.1C1156.8,1068.4,1150.7,1071.6,1144.5,1071.6z"/>
<path id="SVGCleanerId_7" fill="#92C7D3" d="M1252.5,1071.6c-3.1,0-6.2-0.8-9-2.4c-8.6-5-11.6-16-6.6-24.6l63-109.1
	c5-8.6,16-11.6,24.6-6.6c8.6,5,11.6,16,6.6,24.6l-63,109.1C1264.8,1068.4,1258.7,1071.6,1252.5,1071.6z"/>
<path id="SVGCleanerId_8" fill="#92C7D3" d="M1360.5,1071.6c-3.1,0-6.2-0.8-9-2.4c-8.6-5-11.6-16-6.6-24.6l63-109.1
	c5-8.6,16-11.6,24.6-6.6c8.6,5,11.6,16,6.6,24.6l-63,109.1C1372.8,1068.4,1366.7,1071.6,1360.5,1071.6z"/>
<g>
	<path id="SVGCleanerId_0_1_" fill="#92C7D3" d="M712.5,1071.6c-3.1,0-6.2-0.8-9-2.4c-8.6-5-11.6-16-6.6-24.6l63-109.1
		c5-8.6,16-11.6,24.6-6.6c8.6,5,11.6,16,6.6,24.6l-63,109.1C724.8,1068.4,718.7,1071.6,712.5,1071.6z"/>
</g>
<g>
	<path id="SVGCleanerId_1_1_" fill="#92C7D3" d="M820.5,1071.6c-3.1,0-6.2-0.8-9-2.4c-8.6-5-11.6-16-6.6-24.6l63-109.1
		c5-8.6,16-11.6,24.6-6.6c8.6,5,11.6,16,6.6,24.6l-63,109.1C832.8,1068.4,826.7,1071.6,820.5,1071.6z"/>
</g>
<g>
	<path id="SVGCleanerId_2_1_" fill="#92C7D3" d="M496.5,1071.6c-3.1,0-6.2-0.8-9-2.4c-8.6-5-11.6-16-6.6-24.6l63-109.1
		c5-8.6,16-11.6,24.6-6.6c8.6,5,11.6,16,6.6,24.6l-63,109.1C508.8,1068.4,502.7,1071.6,496.5,1071.6z"/>
</g>
<g>
	<path id="SVGCleanerId_3_1_" fill="#92C7D3" d="M604.5,1071.6c-3.1,0-6.2-0.8-9-2.4c-8.6-5-11.6-16-6.6-24.6l63-109.1
		c5-8.6,16-11.6,24.6-6.6c8.6,5,11.6,16,6.6,24.6l-63,109.1C616.8,1068.4,610.7,1071.6,604.5,1071.6z"/>
</g>
<g>
	<path id="SVGCleanerId_4_1_" fill="#92C7D3" d="M928.5,1071.6c-3.1,0-6.2-0.8-9-2.4c-8.6-5-11.6-16-6.6-24.6l63-109.1
		c5-8.6,16-11.6,24.6-6.6c8.6,5,11.6,16,6.6,24.6l-63,109.1C940.8,1068.4,934.7,1071.6,928.5,1071.6z"/>
</g>
<g>
	<path id="SVGCleanerId_5_1_" fill="#92C7D3" d="M1036.5,1071.6c-3.1,0-6.2-0.8-9-2.4c-8.6-5-11.6-16-6.6-24.6l63-109.1
		c5-8.6,16-11.6,24.6-6.6c8.6,5,11.6,16,6.6,24.6l-63,109.1C1048.8,1068.4,1042.7,1071.6,1036.5,1071.6z"/>
</g>
<g>
	<path id="SVGCleanerId_6_1_" fill="#92C7D3" d="M1144.5,1071.6c-3.1,0-6.2-0.8-9-2.4c-8.6-5-11.6-16-6.6-24.6l63-109.1
		c5-8.6,16-11.6,24.6-6.6c8.6,5,11.6,16,6.6,24.6l-63,109.1C1156.8,1068.4,1150.7,1071.6,1144.5,1071.6z"/>
</g>
<g>
	<path id="SVGCleanerId_7_1_" fill="#92C7D3" d="M1252.5,1071.6c-3.1,0-6.2-0.8-9-2.4c-8.6-5-11.6-16-6.6-24.6l63-109.1
		c5-8.6,16-11.6,24.6-6.6c8.6,5,11.6,16,6.6,24.6l-63,109.1C1264.8,1068.4,1258.7,1071.6,1252.5,1071.6z"/>
</g>
<g>
	<path id="SVGCleanerId_8_1_" fill="#92C7D3" d="M1360.5,1071.6c-3.1,0-6.2-0.8-9-2.4c-8.6-5-11.6-16-6.6-24.6l63-109.1
		c5-8.6,16-11.6,24.6-6.6c8.6,5,11.6,16,6.6,24.6l-63,109.1C1372.8,1068.4,1366.7,1071.6,1360.5,1071.6z"/>
</g>
</svg>
